<svg width="15" height="15" viewBox="0 0 15 15" fill="none" xmlns="http://www.w3.org/2000/svg">
<g clip-path="url(#clip0_3521_60)">
<path d="M15 7.03125C15 10.3975 11.6426 13.125 7.5 13.125C6.41309 13.125 5.38183 12.9375 4.45019 12.6006C4.10156 12.8555 3.5332 13.2041 2.85937 13.4971C2.15625 13.8018 1.30957 14.0625 0.468749 14.0625C0.278319 14.0625 0.108397 13.9482 0.0351553 13.7725C-0.0380869 13.5967 0.00292873 13.3975 0.134765 13.2627L0.143554 13.2539C0.152343 13.2451 0.164062 13.2334 0.18164 13.2129C0.213866 13.1777 0.263671 13.1221 0.325194 13.0459C0.445312 12.8994 0.606444 12.6826 0.770507 12.4131C1.06348 11.9268 1.3418 11.2881 1.39746 10.5703C0.518554 9.57422 -9.49134e-07 8.35254 -9.49134e-07 7.03125C-9.49134e-07 3.66504 3.35742 0.9375 7.5 0.9375C11.6426 0.9375 15 3.66504 15 7.03125Z" fill="#57626F"/>
</g>
<defs>
<clipPath id="clip0_3521_60">
<rect width="15" height="15" fill="white"/>
</clipPath>
</defs>
</svg>
