<svg width="15" height="15" viewBox="0 0 15 15" xmlns="http://www.w3.org/2000/svg">
<g clip-path="url(#clip0)">
<path fill="currentColor" d="M1.39453 8.80027L6.68848 13.7426C6.9082 13.9477 7.19824 14.062 7.5 14.062C7.80176 14.062 8.0918 13.9477 8.31152 13.7426L13.6055 8.80027C14.4961 7.97117 15 6.80808 15 5.59226V5.42234C15 3.37449 13.5205 1.62839 11.502 1.29148C10.166 1.06882 8.80664 1.50534 7.85156 2.46042L7.5 2.81199L7.14844 2.46042C6.19336 1.50534 4.83398 1.06882 3.49805 1.29148C1.47949 1.62839 0 3.37449 0 5.42234V5.59226C0 6.80808 0.503906 7.97117 1.39453 8.80027Z"/>
</g>
<defs>
<clipPath id="clip0">
<rect width="15" height="15" fill="white"/>
</clipPath>
</defs>
</svg>
